<svg xmlns="http://www.w3.org/2000/svg" width="859.2" height="646" viewBox="0 0 859.2 646" role="img" aria-label="npx @link-loom/cli">
<title>npx @link-loom/cli</title>
<rect x="0.5" y="0.5" width="858.2" height="645" rx="10" fill="#0d1117" stroke="#30363d"/>
<path d="M0.5 34V10.5A10 10 0 0 1 10.5 0.5H848.7A10 10 0 0 1 858.7 10.5V34Z" fill="#161b22"/>
<path d="M0.5 34H858.7" stroke="#30363d"/>
<circle cx="24" cy="17" r="5.5" fill="#3d444d"/><circle cx="42" cy="17" r="5.5" fill="#3d444d"/><circle cx="60" cy="17" r="5.5" fill="#3d444d"/>
<text x="429.6" y="21.5" text-anchor="middle" fill="#9198a1" font-family="ui-monospace, SFMono-Regular, 'SF Mono', Menlo, Consolas, 'Liberation Mono', monospace" font-size="12">npx @link-loom/cli</text>
<g shape-rendering="crispEdges"><rect x="26.4" y="52" width="8.700000000000001" height="18.3" fill="#1fa9c4"/><rect x="68.4" y="52" width="8.700000000000001" height="18.3" fill="#1fa9c4"/><rect x="85.2" y="52" width="8.700000000000001" height="18.3" fill="#1fa9c4"/><rect x="93.6" y="61" width="8.700000000000001" height="9.3" fill="#1fa9c4"/><rect x="118.8" y="52" width="8.700000000000001" height="18.3" fill="#1fa9c4"/><rect x="135.6" y="52" width="8.700000000000001" height="18.3" fill="#1fa9c4"/><rect x="160.8" y="61" width="8.700000000000001" height="9.3" fill="#1fa9c4"/><rect x="169.2" y="52" width="8.700000000000001" height="9.3" fill="#1fa9c4"/><rect x="202.8" y="52" width="8.700000000000001" height="18.3" fill="#1fa9c4"/><rect x="244.8" y="61" width="8.700000000000001" height="9.3" fill="#1fa9c4"/><rect x="253.2" y="52" width="8.700000000000001" height="9.3" fill="#1fa9c4"/><rect x="261.6" y="52" width="8.700000000000001" height="9.3" fill="#1fa9c4"/><rect x="270" y="61" width="8.700000000000001" height="9.3" fill="#1fa9c4"/><rect x="286.8" y="61" width="8.700000000000001" height="9.3" fill="#1fa9c4"/><rect x="295.2" y="52" width="8.700000000000001" height="9.3" fill="#1fa9c4"/><rect x="303.6" y="52" width="8.700000000000001" height="9.3" fill="#1fa9c4"/><rect x="312" y="61" width="8.700000000000001" height="9.3" fill="#1fa9c4"/><rect x="328.8" y="52" width="8.700000000000001" height="18.3" fill="#1fa9c4"/><rect x="337.2" y="61" width="8.700000000000001" height="9.3" fill="#1fa9c4"/><rect x="354" y="61" width="8.700000000000001" height="9.3" fill="#1fa9c4"/><rect x="362.4" y="52" width="8.700000000000001" height="18.3" fill="#1fa9c4"/><rect x="26.4" y="70" width="8.700000000000001" height="18.3" fill="#1fa9c4"/><rect x="68.4" y="70" width="8.700000000000001" height="18.3" fill="#1fa9c4"/><rect x="85.2" y="70" width="8.700000000000001" height="18.3" fill="#1fa9c4"/><rect x="102" y="70" width="8.700000000000001" height="9.3" fill="#1fa9c4"/><rect x="110.4" y="79" width="8.700000000000001" height="9.3" fill="#1fa9c4"/><rect x="118.8" y="70" width="8.700000000000001" height="18.3" fill="#1fa9c4"/><rect x="135.6" y="70" width="8.700000000000001" height="18.3" fill="#1fa9c4"/><rect x="144" y="70" width="8.700000000000001" height="9.3" fill="#1fa9c4"/><rect x="152.4" y="79" width="8.700000000000001" height="9.3" fill="#1fa9c4"/><rect x="202.8" y="70" width="8.700000000000001" height="18.3" fill="#1fa9c4"/><rect x="244.8" y="70" width="8.700000000000001" height="18.3" fill="#1fa9c4"/><rect x="270" y="70" width="8.700000000000001" height="18.3" fill="#1fa9c4"/><rect x="286.8" y="70" width="8.700000000000001" height="18.3" fill="#1fa9c4"/><rect x="312" y="70" width="8.700000000000001" height="18.3" fill="#1fa9c4"/><rect x="328.8" y="70" width="8.700000000000001" height="18.3" fill="#1fa9c4"/><rect x="345.6" y="70" width="8.700000000000001" height="9.3" fill="#1fa9c4"/><rect x="362.4" y="70" width="8.700000000000001" height="18.3" fill="#1fa9c4"/><rect x="26.4" y="88" width="8.700000000000001" height="18.3" fill="#1fa9c4"/><rect x="34.8" y="97" width="8.700000000000001" height="9.3" fill="#1fa9c4"/><rect x="43.2" y="97" width="8.700000000000001" height="9.3" fill="#1fa9c4"/><rect x="51.6" y="97" width="8.700000000000001" height="9.3" fill="#1fa9c4"/><rect x="68.4" y="88" width="8.700000000000001" height="18.3" fill="#1fa9c4"/><rect x="85.2" y="88" width="8.700000000000001" height="18.3" fill="#1fa9c4"/><rect x="118.8" y="88" width="8.700000000000001" height="18.3" fill="#1fa9c4"/><rect x="135.6" y="88" width="8.700000000000001" height="18.3" fill="#1fa9c4"/><rect x="160.8" y="88" width="8.700000000000001" height="9.3" fill="#1fa9c4"/><rect x="169.2" y="97" width="8.700000000000001" height="9.3" fill="#1fa9c4"/><rect x="202.8" y="88" width="8.700000000000001" height="18.3" fill="#1fa9c4"/><rect x="211.2" y="97" width="8.700000000000001" height="9.3" fill="#1fa9c4"/><rect x="219.6" y="97" width="8.700000000000001" height="9.3" fill="#1fa9c4"/><rect x="228" y="97" width="8.700000000000001" height="9.3" fill="#1fa9c4"/><rect x="244.8" y="88" width="8.700000000000001" height="9.3" fill="#1fa9c4"/><rect x="253.2" y="97" width="8.700000000000001" height="9.3" fill="#1fa9c4"/><rect x="261.6" y="97" width="8.700000000000001" height="9.3" fill="#1fa9c4"/><rect x="270" y="88" width="8.700000000000001" height="9.3" fill="#1fa9c4"/><rect x="286.8" y="88" width="8.700000000000001" height="9.3" fill="#1fa9c4"/><rect x="295.2" y="97" width="8.700000000000001" height="9.3" fill="#1fa9c4"/><rect x="303.6" y="97" width="8.700000000000001" height="9.3" fill="#1fa9c4"/><rect x="312" y="88" width="8.700000000000001" height="9.3" fill="#1fa9c4"/><rect x="328.8" y="88" width="8.700000000000001" height="18.3" fill="#1fa9c4"/><rect x="362.4" y="88" width="8.700000000000001" height="18.3" fill="#1fa9c4"/><rect x="160.8" y="205" width="8.700000000000001" height="9.3" fill="#2b93b0"/><rect x="169.2" y="205" width="8.700000000000001" height="9.3" fill="#2b93b0"/><rect x="177.6" y="196" width="8.700000000000001" height="18.3" fill="#56c4dc"/><rect x="177.6" y="196" width="8.700000000000001" height="9.3" fill="#2b93b0"/><rect x="186" y="196" width="8.700000000000001" height="18.3" fill="#56c4dc"/><rect x="186" y="196" width="8.700000000000001" height="9.3" fill="#2b93b0"/><rect x="194.4" y="205" width="8.700000000000001" height="9.3" fill="#2b93b0"/><rect x="202.8" y="196" width="8.700000000000001" height="18.3" fill="#56c4dc"/><rect x="202.8" y="196" width="8.700000000000001" height="9.3" fill="#2b93b0"/><rect x="211.2" y="196" width="8.700000000000001" height="18.3" fill="#56c4dc"/><rect x="211.2" y="196" width="8.700000000000001" height="9.3" fill="#2b93b0"/><rect x="219.6" y="196" width="8.700000000000001" height="18.3" fill="#56c4dc"/><rect x="219.6" y="196" width="8.700000000000001" height="9.3" fill="#2b93b0"/><rect x="228" y="196" width="8.700000000000001" height="18.3" fill="#56c4dc"/><rect x="228" y="196" width="8.700000000000001" height="9.3" fill="#2b93b0"/><rect x="236.4" y="205" width="8.700000000000001" height="9.3" fill="#2b93b0"/><rect x="244.8" y="196" width="8.700000000000001" height="18.3" fill="#56c4dc"/><rect x="244.8" y="196" width="8.700000000000001" height="9.3" fill="#2b93b0"/><rect x="253.2" y="196" width="8.700000000000001" height="18.3" fill="#56c4dc"/><rect x="253.2" y="196" width="8.700000000000001" height="9.3" fill="#2b93b0"/><rect x="261.6" y="205" width="8.700000000000001" height="9.3" fill="#2b93b0"/><rect x="270" y="205" width="8.700000000000001" height="9.3" fill="#2b93b0"/><rect x="144" y="223" width="8.700000000000001" height="9.3" fill="#2b93b0"/><rect x="152.4" y="214" width="8.700000000000001" height="18.3" fill="#56c4dc"/><rect x="152.4" y="214" width="8.700000000000001" height="9.3" fill="#2b93b0"/><rect x="160.8" y="214" width="8.700000000000001" height="18.3" fill="#56c4dc"/><rect x="160.8" y="214" width="8.700000000000001" height="18.3" fill="#56c4dc"/><rect x="169.2" y="214" width="8.700000000000001" height="18.3" fill="#9be0ee"/><rect x="169.2" y="214" width="8.700000000000001" height="9.3" fill="#56c4dc"/><rect x="177.6" y="214" width="8.700000000000001" height="18.3" fill="#9be0ee"/><rect x="177.6" y="223" width="8.700000000000001" height="9.3" fill="#56c4dc"/><rect x="186" y="214" width="8.700000000000001" height="18.3" fill="#56c4dc"/><rect x="186" y="214" width="8.700000000000001" height="18.3" fill="#56c4dc"/><rect x="194.4" y="214" width="8.700000000000001" height="18.3" fill="#56c4dc"/><rect x="194.4" y="214" width="8.700000000000001" height="18.3" fill="#56c4dc"/><rect x="202.8" y="214" width="8.700000000000001" height="18.3" fill="#56c4dc"/><rect x="202.8" y="214" width="8.700000000000001" height="18.3" fill="#56c4dc"/><rect x="211.2" y="214" width="8.700000000000001" height="18.3" fill="#56c4dc"/><rect x="211.2" y="214" width="8.700000000000001" height="18.3" fill="#56c4dc"/><rect x="219.6" y="214" width="8.700000000000001" height="18.3" fill="#56c4dc"/><rect x="219.6" y="214" width="8.700000000000001" height="18.3" fill="#56c4dc"/><rect x="228" y="214" width="8.700000000000001" height="18.3" fill="#56c4dc"/><rect x="228" y="214" width="8.700000000000001" height="18.3" fill="#56c4dc"/><rect x="236.4" y="214" width="8.700000000000001" height="18.3" fill="#56c4dc"/><rect x="236.4" y="214" width="8.700000000000001" height="18.3" fill="#56c4dc"/><rect x="244.8" y="214" width="8.700000000000001" height="18.3" fill="#56c4dc"/><rect x="244.8" y="214" width="8.700000000000001" height="18.3" fill="#56c4dc"/><rect x="253.2" y="214" width="8.700000000000001" height="18.3" fill="#56c4dc"/><rect x="253.2" y="214" width="8.700000000000001" height="18.3" fill="#56c4dc"/><rect x="261.6" y="214" width="8.700000000000001" height="18.3" fill="#56c4dc"/><rect x="261.6" y="214" width="8.700000000000001" height="18.3" fill="#56c4dc"/><rect x="270" y="214" width="8.700000000000001" height="18.3" fill="#56c4dc"/><rect x="270" y="214" width="8.700000000000001" height="18.3" fill="#56c4dc"/><rect x="278.4" y="214" width="8.700000000000001" height="18.3" fill="#56c4dc"/><rect x="278.4" y="214" width="8.700000000000001" height="9.3" fill="#2b93b0"/><rect x="286.8" y="223" width="8.700000000000001" height="9.3" fill="#2b93b0"/><rect x="135.6" y="232" width="8.700000000000001" height="18.3" fill="#2b93b0"/><rect x="135.6" y="232" width="8.700000000000001" height="18.3" fill="#2b93b0"/><rect x="144" y="232" width="8.700000000000001" height="18.3" fill="#56c4dc"/><rect x="144" y="232" width="8.700000000000001" height="18.3" fill="#56c4dc"/><rect x="152.4" y="232" width="8.700000000000001" height="18.3" fill="#56c4dc"/><rect x="152.4" y="232" width="8.700000000000001" height="18.3" fill="#56c4dc"/><rect x="160.8" y="232" width="8.700000000000001" height="18.3" fill="#56c4dc"/><rect x="160.8" y="232" width="8.700000000000001" height="18.3" fill="#56c4dc"/><rect x="169.2" y="232" width="8.700000000000001" height="18.3" fill="#ffffff"/><rect x="169.2" y="232" width="8.700000000000001" height="9.3" fill="#56c4dc"/><rect x="177.6" y="232" width="8.700000000000001" height="18.3" fill="#56c4dc"/><rect x="177.6" y="241" width="8.700000000000001" height="9.3" fill="#1b2433"/><rect x="186" y="232" width="8.700000000000001" height="18.3" fill="#56c4dc"/><rect x="186" y="241" width="8.700000000000001" height="9.3" fill="#1b2433"/><rect x="194.4" y="232" width="8.700000000000001" height="18.3" fill="#56c4dc"/><rect x="194.4" y="232" width="8.700000000000001" height="18.3" fill="#56c4dc"/><rect x="202.8" y="232" width="8.700000000000001" height="18.3" fill="#56c4dc"/><rect x="202.8" y="232" width="8.700000000000001" height="18.3" fill="#56c4dc"/><rect x="211.2" y="232" width="8.700000000000001" height="18.3" fill="#56c4dc"/><rect x="211.2" y="232" width="8.700000000000001" height="18.3" fill="#56c4dc"/><rect x="219.6" y="232" width="8.700000000000001" height="18.3" fill="#56c4dc"/><rect x="219.6" y="232" width="8.700000000000001" height="18.3" fill="#56c4dc"/><rect x="228" y="232" width="8.700000000000001" height="18.3" fill="#56c4dc"/><rect x="228" y="232" width="8.700000000000001" height="18.3" fill="#56c4dc"/><rect x="236.4" y="232" width="8.700000000000001" height="18.3" fill="#56c4dc"/><rect x="236.4" y="232" width="8.700000000000001" height="18.3" fill="#56c4dc"/><rect x="244.8" y="232" width="8.700000000000001" height="18.3" fill="#56c4dc"/><rect x="244.8" y="241" width="8.700000000000001" height="9.3" fill="#ffffff"/><rect x="253.2" y="232" width="8.700000000000001" height="18.3" fill="#56c4dc"/><rect x="253.2" y="241" width="8.700000000000001" height="9.3" fill="#1b2433"/><rect x="261.6" y="232" width="8.700000000000001" height="18.3" fill="#56c4dc"/><rect x="261.6" y="241" width="8.700000000000001" height="9.3" fill="#1b2433"/><rect x="270" y="232" width="8.700000000000001" height="18.3" fill="#56c4dc"/><rect x="270" y="232" width="8.700000000000001" height="18.3" fill="#56c4dc"/><rect x="278.4" y="232" width="8.700000000000001" height="18.3" fill="#56c4dc"/><rect x="278.4" y="232" width="8.700000000000001" height="18.3" fill="#56c4dc"/><rect x="286.8" y="232" width="8.700000000000001" height="18.3" fill="#56c4dc"/><rect x="286.8" y="232" width="8.700000000000001" height="18.3" fill="#56c4dc"/><rect x="295.2" y="232" width="8.700000000000001" height="18.3" fill="#2b93b0"/><rect x="295.2" y="232" width="8.700000000000001" height="18.3" fill="#2b93b0"/><rect x="135.6" y="250" width="8.700000000000001" height="9.3" fill="#2b93b0"/><rect x="144" y="250" width="8.700000000000001" height="18.3" fill="#56c4dc"/><rect x="144" y="259" width="8.700000000000001" height="9.3" fill="#2b93b0"/><rect x="152.4" y="250" width="8.700000000000001" height="18.3" fill="#56c4dc"/><rect x="152.4" y="250" width="8.700000000000001" height="18.3" fill="#56c4dc"/><rect x="160.8" y="250" width="8.700000000000001" height="18.3" fill="#56c4dc"/><rect x="160.8" y="250" width="8.700000000000001" height="18.3" fill="#56c4dc"/><rect x="169.2" y="250" width="8.700000000000001" height="18.3" fill="#1b2433"/><rect x="169.2" y="250" width="8.700000000000001" height="18.3" fill="#1b2433"/><rect x="177.6" y="250" width="8.700000000000001" height="18.3" fill="#1b2433"/><rect x="177.6" y="250" width="8.700000000000001" height="18.3" fill="#1b2433"/><rect x="186" y="250" width="8.700000000000001" height="18.3" fill="#1b2433"/><rect x="186" y="259" width="8.700000000000001" height="9.3" fill="#ffffff"/><rect x="194.4" y="250" width="8.700000000000001" height="18.3" fill="#56c4dc"/><rect x="194.4" y="250" width="8.700000000000001" height="18.3" fill="#56c4dc"/><rect x="202.8" y="250" width="8.700000000000001" height="18.3" fill="#56c4dc"/><rect x="202.8" y="250" width="8.700000000000001" height="18.3" fill="#56c4dc"/><rect x="211.2" y="250" width="8.700000000000001" height="18.3" fill="#56c4dc"/><rect x="211.2" y="250" width="8.700000000000001" height="18.3" fill="#56c4dc"/><rect x="219.6" y="250" width="8.700000000000001" height="18.3" fill="#56c4dc"/><rect x="219.6" y="250" width="8.700000000000001" height="18.3" fill="#56c4dc"/><rect x="228" y="250" width="8.700000000000001" height="18.3" fill="#56c4dc"/><rect x="228" y="250" width="8.700000000000001" height="18.3" fill="#56c4dc"/><rect x="236.4" y="250" width="8.700000000000001" height="18.3" fill="#56c4dc"/><rect x="236.4" y="250" width="8.700000000000001" height="18.3" fill="#56c4dc"/><rect x="244.8" y="250" width="8.700000000000001" height="18.3" fill="#1b2433"/><rect x="244.8" y="250" width="8.700000000000001" height="18.3" fill="#1b2433"/><rect x="253.2" y="250" width="8.700000000000001" height="18.3" fill="#1b2433"/><rect x="253.2" y="250" width="8.700000000000001" height="18.3" fill="#1b2433"/><rect x="261.6" y="250" width="8.700000000000001" height="18.3" fill="#1b2433"/><rect x="261.6" y="259" width="8.700000000000001" height="9.3" fill="#ffffff"/><rect x="270" y="250" width="8.700000000000001" height="18.3" fill="#56c4dc"/><rect x="270" y="250" width="8.700000000000001" height="18.3" fill="#56c4dc"/><rect x="278.4" y="250" width="8.700000000000001" height="18.3" fill="#56c4dc"/><rect x="278.4" y="250" width="8.700000000000001" height="18.3" fill="#56c4dc"/><rect x="286.8" y="250" width="8.700000000000001" height="18.3" fill="#56c4dc"/><rect x="286.8" y="259" width="8.700000000000001" height="9.3" fill="#2b93b0"/><rect x="295.2" y="250" width="8.700000000000001" height="9.3" fill="#2b93b0"/><rect x="135.6" y="268" width="8.700000000000001" height="18.3" fill="#2b93b0"/><rect x="135.6" y="268" width="8.700000000000001" height="18.3" fill="#2b93b0"/><rect x="144" y="268" width="8.700000000000001" height="18.3" fill="#56c4dc"/><rect x="144" y="268" width="8.700000000000001" height="18.3" fill="#56c4dc"/><rect x="152.4" y="268" width="8.700000000000001" height="18.3" fill="#56c4dc"/><rect x="152.4" y="268" width="8.700000000000001" height="18.3" fill="#56c4dc"/><rect x="160.8" y="268" width="8.700000000000001" height="18.3" fill="#56c4dc"/><rect x="160.8" y="268" width="8.700000000000001" height="18.3" fill="#56c4dc"/><rect x="169.2" y="268" width="8.700000000000001" height="18.3" fill="#56c4dc"/><rect x="169.2" y="268" width="8.700000000000001" height="18.3" fill="#56c4dc"/><rect x="177.6" y="268" width="8.700000000000001" height="18.3" fill="#56c4dc"/><rect x="177.6" y="268" width="8.700000000000001" height="18.3" fill="#56c4dc"/><rect x="186" y="268" width="8.700000000000001" height="18.3" fill="#56c4dc"/><rect x="186" y="268" width="8.700000000000001" height="18.3" fill="#56c4dc"/><rect x="194.4" y="268" width="8.700000000000001" height="18.3" fill="#56c4dc"/><rect x="194.4" y="268" width="8.700000000000001" height="9.3" fill="#1b2433"/><rect x="202.8" y="268" width="8.700000000000001" height="18.3" fill="#56c4dc"/><rect x="202.8" y="277" width="8.700000000000001" height="9.3" fill="#1b2433"/><rect x="211.2" y="268" width="8.700000000000001" height="18.3" fill="#56c4dc"/><rect x="211.2" y="277" width="8.700000000000001" height="9.3" fill="#1b2433"/><rect x="219.6" y="268" width="8.700000000000001" height="18.3" fill="#56c4dc"/><rect x="219.6" y="277" width="8.700000000000001" height="9.3" fill="#1b2433"/><rect x="228" y="268" width="8.700000000000001" height="18.3" fill="#56c4dc"/><rect x="228" y="277" width="8.700000000000001" height="9.3" fill="#1b2433"/><rect x="236.4" y="268" width="8.700000000000001" height="18.3" fill="#56c4dc"/><rect x="236.4" y="268" width="8.700000000000001" height="9.3" fill="#1b2433"/><rect x="244.8" y="268" width="8.700000000000001" height="18.3" fill="#56c4dc"/><rect x="244.8" y="268" width="8.700000000000001" height="18.3" fill="#56c4dc"/><rect x="253.2" y="268" width="8.700000000000001" height="18.3" fill="#56c4dc"/><rect x="253.2" y="268" width="8.700000000000001" height="18.3" fill="#56c4dc"/><rect x="261.6" y="268" width="8.700000000000001" height="18.3" fill="#56c4dc"/><rect x="261.6" y="268" width="8.700000000000001" height="18.3" fill="#56c4dc"/><rect x="270" y="268" width="8.700000000000001" height="18.3" fill="#56c4dc"/><rect x="270" y="268" width="8.700000000000001" height="18.3" fill="#56c4dc"/><rect x="278.4" y="268" width="8.700000000000001" height="18.3" fill="#56c4dc"/><rect x="278.4" y="268" width="8.700000000000001" height="18.3" fill="#56c4dc"/><rect x="286.8" y="268" width="8.700000000000001" height="18.3" fill="#56c4dc"/><rect x="286.8" y="268" width="8.700000000000001" height="18.3" fill="#56c4dc"/><rect x="295.2" y="268" width="8.700000000000001" height="18.3" fill="#2b93b0"/><rect x="295.2" y="268" width="8.700000000000001" height="18.3" fill="#2b93b0"/><rect x="135.6" y="286" width="8.700000000000001" height="9.3" fill="#2b93b0"/><rect x="144" y="286" width="8.700000000000001" height="18.3" fill="#56c4dc"/><rect x="144" y="295" width="8.700000000000001" height="9.3" fill="#2b93b0"/><rect x="152.4" y="286" width="8.700000000000001" height="18.3" fill="#56c4dc"/><rect x="152.4" y="286" width="8.700000000000001" height="18.3" fill="#56c4dc"/><rect x="160.8" y="286" width="8.700000000000001" height="18.3" fill="#56c4dc"/><rect x="160.8" y="286" width="8.700000000000001" height="18.3" fill="#56c4dc"/><rect x="169.2" y="286" width="8.700000000000001" height="18.3" fill="#56c4dc"/><rect x="169.2" y="286" width="8.700000000000001" height="18.3" fill="#56c4dc"/><rect x="177.6" y="286" width="8.700000000000001" height="18.3" fill="#56c4dc"/><rect x="177.6" y="286" width="8.700000000000001" height="18.3" fill="#56c4dc"/><rect x="186" y="286" width="8.700000000000001" height="18.3" fill="#56c4dc"/><rect x="186" y="295" width="8.700000000000001" height="9.3" fill="#c8f1f8"/><rect x="194.4" y="286" width="8.700000000000001" height="18.3" fill="#56c4dc"/><rect x="194.4" y="295" width="8.700000000000001" height="9.3" fill="#c8f1f8"/><rect x="202.8" y="286" width="8.700000000000001" height="18.3" fill="#c8f1f8"/><rect x="202.8" y="286" width="8.700000000000001" height="9.3" fill="#56c4dc"/><rect x="211.2" y="286" width="8.700000000000001" height="18.3" fill="#c8f1f8"/><rect x="211.2" y="286" width="8.700000000000001" height="9.3" fill="#56c4dc"/><rect x="219.6" y="286" width="8.700000000000001" height="18.3" fill="#c8f1f8"/><rect x="219.6" y="286" width="8.700000000000001" height="9.3" fill="#56c4dc"/><rect x="228" y="286" width="8.700000000000001" height="18.3" fill="#c8f1f8"/><rect x="228" y="286" width="8.700000000000001" height="9.3" fill="#56c4dc"/><rect x="236.4" y="286" width="8.700000000000001" height="18.3" fill="#56c4dc"/><rect x="236.4" y="295" width="8.700000000000001" height="9.3" fill="#c8f1f8"/><rect x="244.8" y="286" width="8.700000000000001" height="18.3" fill="#56c4dc"/><rect x="244.8" y="295" width="8.700000000000001" height="9.3" fill="#c8f1f8"/><rect x="253.2" y="286" width="8.700000000000001" height="18.3" fill="#56c4dc"/><rect x="253.2" y="286" width="8.700000000000001" height="18.3" fill="#56c4dc"/><rect x="261.6" y="286" width="8.700000000000001" height="18.3" fill="#56c4dc"/><rect x="261.6" y="286" width="8.700000000000001" height="18.3" fill="#56c4dc"/><rect x="270" y="286" width="8.700000000000001" height="18.3" fill="#56c4dc"/><rect x="270" y="286" width="8.700000000000001" height="18.3" fill="#56c4dc"/><rect x="278.4" y="286" width="8.700000000000001" height="18.3" fill="#56c4dc"/><rect x="278.4" y="286" width="8.700000000000001" height="18.3" fill="#56c4dc"/><rect x="286.8" y="286" width="8.700000000000001" height="18.3" fill="#56c4dc"/><rect x="286.8" y="295" width="8.700000000000001" height="9.3" fill="#2b93b0"/><rect x="295.2" y="286" width="8.700000000000001" height="9.3" fill="#2b93b0"/><rect x="144" y="304" width="8.700000000000001" height="9.3" fill="#2b93b0"/><rect x="152.4" y="304" width="8.700000000000001" height="18.3" fill="#56c4dc"/><rect x="152.4" y="313" width="8.700000000000001" height="9.3" fill="#2b93b0"/><rect x="160.8" y="304" width="8.700000000000001" height="18.3" fill="#56c4dc"/><rect x="160.8" y="304" width="8.700000000000001" height="18.3" fill="#56c4dc"/><rect x="169.2" y="304" width="8.700000000000001" height="18.3" fill="#56c4dc"/><rect x="169.2" y="304" width="8.700000000000001" height="18.3" fill="#56c4dc"/><rect x="177.6" y="304" width="8.700000000000001" height="18.3" fill="#56c4dc"/><rect x="177.6" y="304" width="8.700000000000001" height="18.3" fill="#56c4dc"/><rect x="186" y="304" width="8.700000000000001" height="18.3" fill="#56c4dc"/><rect x="186" y="304" width="8.700000000000001" height="18.3" fill="#56c4dc"/><rect x="194.4" y="304" width="8.700000000000001" height="18.3" fill="#c8f1f8"/><rect x="194.4" y="313" width="8.700000000000001" height="9.3" fill="#56c4dc"/><rect x="202.8" y="304" width="8.700000000000001" height="18.3" fill="#c8f1f8"/><rect x="202.8" y="313" width="8.700000000000001" height="9.3" fill="#56c4dc"/><rect x="211.2" y="304" width="8.700000000000001" height="18.3" fill="#c8f1f8"/><rect x="211.2" y="313" width="8.700000000000001" height="9.3" fill="#56c4dc"/><rect x="219.6" y="304" width="8.700000000000001" height="18.3" fill="#c8f1f8"/><rect x="219.6" y="313" width="8.700000000000001" height="9.3" fill="#56c4dc"/><rect x="228" y="304" width="8.700000000000001" height="18.3" fill="#c8f1f8"/><rect x="228" y="313" width="8.700000000000001" height="9.3" fill="#56c4dc"/><rect x="236.4" y="304" width="8.700000000000001" height="18.3" fill="#c8f1f8"/><rect x="236.4" y="313" width="8.700000000000001" height="9.3" fill="#56c4dc"/><rect x="244.8" y="304" width="8.700000000000001" height="18.3" fill="#56c4dc"/><rect x="244.8" y="304" width="8.700000000000001" height="18.3" fill="#56c4dc"/><rect x="253.2" y="304" width="8.700000000000001" height="18.3" fill="#56c4dc"/><rect x="253.2" y="304" width="8.700000000000001" height="18.3" fill="#56c4dc"/><rect x="261.6" y="304" width="8.700000000000001" height="18.3" fill="#56c4dc"/><rect x="261.6" y="304" width="8.700000000000001" height="18.3" fill="#56c4dc"/><rect x="270" y="304" width="8.700000000000001" height="18.3" fill="#56c4dc"/><rect x="270" y="304" width="8.700000000000001" height="18.3" fill="#56c4dc"/><rect x="278.4" y="304" width="8.700000000000001" height="18.3" fill="#56c4dc"/><rect x="278.4" y="313" width="8.700000000000001" height="9.3" fill="#2b93b0"/><rect x="286.8" y="304" width="8.700000000000001" height="9.3" fill="#2b93b0"/><rect x="160.8" y="322" width="8.700000000000001" height="9.3" fill="#2b93b0"/><rect x="169.2" y="322" width="8.700000000000001" height="18.3" fill="#2b93b0"/><rect x="169.2" y="322" width="8.700000000000001" height="18.3" fill="#2b93b0"/><rect x="177.6" y="322" width="8.700000000000001" height="18.3" fill="#56c4dc"/><rect x="177.6" y="331" width="8.700000000000001" height="9.3" fill="#2b93b0"/><rect x="186" y="322" width="8.700000000000001" height="9.3" fill="#56c4dc"/><rect x="194.4" y="322" width="8.700000000000001" height="9.3" fill="#2b93b0"/><rect x="202.8" y="322" width="8.700000000000001" height="18.3" fill="#56c4dc"/><rect x="202.8" y="331" width="8.700000000000001" height="9.3" fill="#2b93b0"/><rect x="211.2" y="322" width="8.700000000000001" height="18.3" fill="#56c4dc"/><rect x="211.2" y="331" width="8.700000000000001" height="9.3" fill="#2b93b0"/><rect x="219.6" y="322" width="8.700000000000001" height="18.3" fill="#56c4dc"/><rect x="219.6" y="331" width="8.700000000000001" height="9.3" fill="#2b93b0"/><rect x="228" y="322" width="8.700000000000001" height="18.3" fill="#56c4dc"/><rect x="228" y="331" width="8.700000000000001" height="9.3" fill="#2b93b0"/><rect x="236.4" y="322" width="8.700000000000001" height="9.3" fill="#2b93b0"/><rect x="244.8" y="322" width="8.700000000000001" height="9.3" fill="#56c4dc"/><rect x="253.2" y="322" width="8.700000000000001" height="18.3" fill="#56c4dc"/><rect x="253.2" y="331" width="8.700000000000001" height="9.3" fill="#2b93b0"/><rect x="261.6" y="322" width="8.700000000000001" height="18.3" fill="#2b93b0"/><rect x="261.6" y="322" width="8.700000000000001" height="18.3" fill="#2b93b0"/><rect x="270" y="322" width="8.700000000000001" height="9.3" fill="#2b93b0"/></g>
<g><path d="M34.8 133H34.8Q30.6 133 30.6 137.2V142M34.8 133H43.2M43.2 133H51.6M51.6 133H60M211.2 133H219.6M219.6 133H228M228 133H236.4M236.4 133H244.8M244.8 133H253.2M253.2 133H261.6M261.6 133H270M270 133H278.4M278.4 133H286.8M286.8 133H295.2M295.2 133H303.6M303.6 133H312M312 133H320.4M320.4 133H328.8M328.8 133H337.2M337.2 133H345.6M345.6 133H354M354 133H362.4M362.4 133H370.8M370.8 133H379.2M379.2 133H387.6M387.6 133H396M396 133H404.4M404.4 133H412.8M412.8 133H421.2M421.2 133H429.6M429.6 133H438M438 133H446.4M446.4 133H454.8M454.8 133H463.2M463.2 133H471.6M471.6 133H480M480 133H488.4M488.4 133H496.8M496.8 133H505.2M505.2 133H513.6M513.6 133H522M522 133H530.4M530.4 133H538.8M538.8 133H547.2M547.2 133H555.6M555.6 133H564M564 133H572.4M572.4 133H580.8M580.8 133H589.2M589.2 133H597.6M597.6 133H606M606 133H614.4M614.4 133H622.8M622.8 133H631.2M631.2 133H639.6M639.6 133H648M648 133H656.4M656.4 133H664.8M664.8 133H673.2M673.2 133H681.6M681.6 133H690M690 133H698.4M698.4 133H706.8M706.8 133H715.2M715.2 133H723.6M723.6 133H732M732 133H740.4M740.4 133H748.8M748.8 133H757.2M757.2 133H765.6M765.6 133H774M774 133H782.4M782.4 133H790.8M790.8 133H799.2M799.2 133H807.6M807.6 133H816M816 133H824.4M824.4 133H824.4Q828.6 133 828.6 137.2V142M30.6 142V160M828.6 142V160M30.6 160V178M828.6 160V178M30.6 178V196M828.6 178V196M30.6 196V214M828.6 196V214M30.6 214V232M828.6 214V232M30.6 232V250M828.6 232V250M30.6 250V268M828.6 250V268M30.6 268V286M828.6 268V286M30.6 286V304M828.6 286V304M30.6 304V322M828.6 304V322M30.6 322V340M828.6 322V340M30.6 340V358M828.6 340V358M30.6 358V376M828.6 358V376M30.6 376V394M828.6 376V394M30.6 394V412M828.6 394V412M30.6 412V416.8Q30.6 421 34.8 421H34.8M34.8 421H43.2M43.2 421H51.6M51.6 421H60M60 421H68.4M68.4 421H76.8M76.8 421H85.2M85.2 421H93.6M93.6 421H102M102 421H110.4M110.4 421H118.8M118.8 421H127.2M127.2 421H135.6M135.6 421H144M144 421H152.4M152.4 421H160.8M160.8 421H169.2M169.2 421H177.6M177.6 421H186M186 421H194.4M194.4 421H202.8M202.8 421H211.2M211.2 421H219.6M219.6 421H228M228 421H236.4M236.4 421H244.8M244.8 421H253.2M253.2 421H261.6M261.6 421H270M270 421H278.4M278.4 421H286.8M286.8 421H295.2M295.2 421H303.6M303.6 421H312M312 421H320.4M320.4 421H328.8M328.8 421H337.2M337.2 421H345.6M345.6 421H354M354 421H362.4M362.4 421H370.8M370.8 421H379.2M379.2 421H387.6M387.6 421H396M396 421H404.4M404.4 421H412.8M412.8 421H421.2M421.2 421H429.6M429.6 421H438M438 421H446.4M446.4 421H454.8M454.8 421H463.2M463.2 421H471.6M471.6 421H480M480 421H488.4M488.4 421H496.8M496.8 421H505.2M505.2 421H513.6M513.6 421H522M522 421H530.4M530.4 421H538.8M538.8 421H547.2M547.2 421H555.6M555.6 421H564M564 421H572.4M572.4 421H580.8M580.8 421H589.2M589.2 421H597.6M597.6 421H606M606 421H614.4M614.4 421H622.8M622.8 421H631.2M631.2 421H639.6M639.6 421H648M648 421H656.4M656.4 421H664.8M664.8 421H673.2M673.2 421H681.6M681.6 421H690M690 421H698.4M698.4 421H706.8M706.8 421H715.2M715.2 421H723.6M723.6 421H732M732 421H740.4M740.4 421H748.8M748.8 421H757.2M757.2 421H765.6M765.6 421H774M774 421H782.4M782.4 421H790.8M790.8 421H799.2M799.2 421H807.6M807.6 421H816M816 421H824.4M828.6 412V416.8Q828.6 421 824.4 421H824.4" stroke="#1fa9c4" stroke-width="1.2" fill="none" stroke-linecap="square"/><path d="M391.8 142V160M391.8 160V178M391.8 178V196M391.8 196V214M391.8 214V232M391.8 232V250M391.8 250V268M391.8 268V286M391.8 286V304M391.8 304V322M391.8 322V340M391.8 340V358M391.8 358V376M391.8 376V394M391.8 394V412" stroke="#8b949e" stroke-width="1.2" fill="none" stroke-linecap="square"/></g>
<g font-family="ui-monospace, SFMono-Regular, 'SF Mono', Menlo, Consolas, 'Liberation Mono', monospace" font-size="14" xml:space="preserve"><text x="68.4" y="136.96" fill="#e6edf3" font-weight="700" textLength="33.6" lengthAdjust="spacingAndGlyphs">Link</text><text x="110.4" y="136.96" fill="#e6edf3" font-weight="700" textLength="33.6" lengthAdjust="spacingAndGlyphs">Loom</text><text x="152.4" y="136.96" fill="#e6edf3" font-weight="700" textLength="50.4" lengthAdjust="spacingAndGlyphs">v3.0.0</text><text x="177.6" y="172.96" fill="#e6edf3" font-weight="700" textLength="16.8" lengthAdjust="spacingAndGlyphs">Hi</text><text x="202.8" y="172.96" fill="#e6edf3" font-weight="700" textLength="50.4" lengthAdjust="spacingAndGlyphs">there!</text><text x="412.8" y="172.96" fill="#1fa9c4" font-weight="700" textLength="58.8" lengthAdjust="spacingAndGlyphs">Getting</text><text x="480" y="172.96" fill="#1fa9c4" font-weight="700" textLength="58.8" lengthAdjust="spacingAndGlyphs">started</text><text x="412.8" y="190.96" fill="#e6edf3" textLength="33.6" lengthAdjust="spacingAndGlyphs">Pick</text><text x="454.8" y="190.96" fill="#e6edf3" textLength="33.6" lengthAdjust="spacingAndGlyphs">what</text><text x="496.8" y="190.96" fill="#e6edf3" textLength="16.8" lengthAdjust="spacingAndGlyphs">to</text><text x="522" y="190.96" fill="#e6edf3" textLength="50.4" lengthAdjust="spacingAndGlyphs">create</text><text x="580.8" y="190.96" fill="#e6edf3" textLength="50.4" lengthAdjust="spacingAndGlyphs">below,</text><text x="412.8" y="208.96" fill="#e6edf3" textLength="16.8" lengthAdjust="spacingAndGlyphs">or</text><text x="438" y="208.96" fill="#e6edf3" textLength="33.6" lengthAdjust="spacingAndGlyphs">just</text><text x="480" y="208.96" fill="#e6edf3" textLength="25.2" lengthAdjust="spacingAndGlyphs">say</text><text x="513.6" y="208.96" fill="#e6edf3" textLength="16.8" lengthAdjust="spacingAndGlyphs">it</text><text x="538.8" y="208.96" fill="#e6edf3" textLength="16.8" lengthAdjust="spacingAndGlyphs">in</text><text x="564" y="208.96" fill="#e6edf3" textLength="33.6" lengthAdjust="spacingAndGlyphs">your</text><text x="606" y="208.96" fill="#e6edf3" textLength="25.2" lengthAdjust="spacingAndGlyphs">own</text><text x="639.6" y="208.96" fill="#e6edf3" textLength="50.4" lengthAdjust="spacingAndGlyphs">words.</text><text x="412.8" y="226.96" fill="#e6edf3" textLength="25.2" lengthAdjust="spacingAndGlyphs">Esc</text><text x="446.4" y="226.96" fill="#e6edf3" textLength="33.6" lengthAdjust="spacingAndGlyphs">goes</text><text x="488.4" y="226.96" fill="#e6edf3" textLength="33.6" lengthAdjust="spacingAndGlyphs">back</text><text x="530.4" y="226.96" fill="#e6edf3" textLength="16.8" lengthAdjust="spacingAndGlyphs">on</text><text x="555.6" y="226.96" fill="#e6edf3" textLength="42" lengthAdjust="spacingAndGlyphs">every</text><text x="606" y="226.96" fill="#e6edf3" textLength="42" lengthAdjust="spacingAndGlyphs">step.</text><text x="412.8" y="262.96" fill="#1fa9c4" font-weight="700" textLength="25.2" lengthAdjust="spacingAndGlyphs">For</text><text x="446.4" y="262.96" fill="#1fa9c4" font-weight="700" textLength="50.4" lengthAdjust="spacingAndGlyphs">agents</text><text x="412.8" y="280.96" fill="#8b949e" textLength="25.2" lengthAdjust="spacingAndGlyphs">npx</text><text x="446.4" y="280.96" fill="#8b949e" textLength="75.6" lengthAdjust="spacingAndGlyphs">link-loom</text><text x="530.4" y="280.96" fill="#8b949e" textLength="67.2" lengthAdjust="spacingAndGlyphs">describe</text><text x="606" y="280.96" fill="#8b949e" textLength="50.4" lengthAdjust="spacingAndGlyphs">--json</text><text x="76.8" y="370.96" fill="#e6edf3" textLength="25.2" lengthAdjust="spacingAndGlyphs">I'm</text><text x="110.4" y="370.96" fill="#e6edf3" textLength="50.4" lengthAdjust="spacingAndGlyphs">Loomi.</text><text x="169.2" y="370.96" fill="#e6edf3" textLength="42" lengthAdjust="spacingAndGlyphs">Let's</text><text x="219.6" y="370.96" fill="#e6edf3" textLength="42" lengthAdjust="spacingAndGlyphs">weave</text><text x="270" y="370.96" fill="#e6edf3" textLength="84" lengthAdjust="spacingAndGlyphs">something!</text><text x="169.2" y="388.96" fill="#8b949e" textLength="84" lengthAdjust="spacingAndGlyphs">~/projects</text><text x="26.4" y="460.96" fill="#e6edf3" font-weight="700" textLength="33.6" lengthAdjust="spacingAndGlyphs">What</text><text x="68.4" y="460.96" fill="#e6edf3" font-weight="700" textLength="16.8" lengthAdjust="spacingAndGlyphs">do</text><text x="93.6" y="460.96" fill="#e6edf3" font-weight="700" textLength="25.2" lengthAdjust="spacingAndGlyphs">you</text><text x="127.2" y="460.96" fill="#e6edf3" font-weight="700" textLength="33.6" lengthAdjust="spacingAndGlyphs">want</text><text x="169.2" y="460.96" fill="#e6edf3" font-weight="700" textLength="16.8" lengthAdjust="spacingAndGlyphs">to</text><text x="194.4" y="460.96" fill="#e6edf3" font-weight="700" textLength="58.8" lengthAdjust="spacingAndGlyphs">create?</text><text x="26.4" y="496.96" fill="#1fa9c4" textLength="8.4" lengthAdjust="spacingAndGlyphs">▸</text><text x="43.2" y="496.96" fill="#1fa9c4" textLength="58.8" lengthAdjust="spacingAndGlyphs">Landing</text><text x="110.4" y="496.96" fill="#1fa9c4" textLength="33.6" lengthAdjust="spacingAndGlyphs">page</text><text x="228" y="496.96" fill="#8b949e" textLength="50.4" lengthAdjust="spacingAndGlyphs">Astro,</text><text x="286.8" y="496.96" fill="#8b949e" textLength="50.4" lengthAdjust="spacingAndGlyphs">en/es,</text><text x="345.6" y="496.96" fill="#8b949e" textLength="25.2" lengthAdjust="spacingAndGlyphs">SEO</text><text x="379.2" y="496.96" fill="#8b949e" textLength="25.2" lengthAdjust="spacingAndGlyphs">and</text><text x="412.8" y="496.96" fill="#8b949e" textLength="33.6" lengthAdjust="spacingAndGlyphs">GEO,</text><text x="454.8" y="496.96" fill="#8b949e" textLength="42" lengthAdjust="spacingAndGlyphs">blog,</text><text x="505.2" y="496.96" fill="#8b949e" textLength="58.8" lengthAdjust="spacingAndGlyphs">search,</text><text x="572.4" y="496.96" fill="#8b949e" textLength="50.4" lengthAdjust="spacingAndGlyphs">editor</text><text x="43.2" y="514.96" fill="#e6edf3" textLength="50.4" lengthAdjust="spacingAndGlyphs">Webapp</text><text x="102" y="514.96" fill="#e6edf3" textLength="8.4" lengthAdjust="spacingAndGlyphs">·</text><text x="118.8" y="514.96" fill="#e6edf3" textLength="50.4" lengthAdjust="spacingAndGlyphs">client</text><text x="228" y="514.96" fill="#8b949e" textLength="42" lengthAdjust="spacingAndGlyphs">React</text><text x="278.4" y="514.96" fill="#8b949e" textLength="25.2" lengthAdjust="spacingAndGlyphs">app</text><text x="312" y="514.96" fill="#8b949e" textLength="25.2" lengthAdjust="spacingAndGlyphs">for</text><text x="345.6" y="514.96" fill="#8b949e" textLength="25.2" lengthAdjust="spacingAndGlyphs">the</text><text x="379.2" y="514.96" fill="#8b949e" textLength="50.4" lengthAdjust="spacingAndGlyphs">people</text><text x="438" y="514.96" fill="#8b949e" textLength="25.2" lengthAdjust="spacingAndGlyphs">who</text><text x="471.6" y="514.96" fill="#8b949e" textLength="25.2" lengthAdjust="spacingAndGlyphs">run</text><text x="505.2" y="514.96" fill="#8b949e" textLength="25.2" lengthAdjust="spacingAndGlyphs">the</text><text x="538.8" y="514.96" fill="#8b949e" textLength="75.6" lengthAdjust="spacingAndGlyphs">operation</text><text x="43.2" y="532.96" fill="#e6edf3" textLength="50.4" lengthAdjust="spacingAndGlyphs">Webapp</text><text x="102" y="532.96" fill="#e6edf3" textLength="8.4" lengthAdjust="spacingAndGlyphs">·</text><text x="118.8" y="532.96" fill="#e6edf3" textLength="42" lengthAdjust="spacingAndGlyphs">admin</text><text x="228" y="532.96" fill="#8b949e" textLength="42" lengthAdjust="spacingAndGlyphs">React</text><text x="278.4" y="532.96" fill="#8b949e" textLength="25.2" lengthAdjust="spacingAndGlyphs">app</text><text x="312" y="532.96" fill="#8b949e" textLength="25.2" lengthAdjust="spacingAndGlyphs">for</text><text x="345.6" y="532.96" fill="#8b949e" textLength="25.2" lengthAdjust="spacingAndGlyphs">the</text><text x="379.2" y="532.96" fill="#8b949e" textLength="50.4" lengthAdjust="spacingAndGlyphs">people</text><text x="438" y="532.96" fill="#8b949e" textLength="25.2" lengthAdjust="spacingAndGlyphs">who</text><text x="471.6" y="532.96" fill="#8b949e" textLength="25.2" lengthAdjust="spacingAndGlyphs">run</text><text x="505.2" y="532.96" fill="#8b949e" textLength="25.2" lengthAdjust="spacingAndGlyphs">the</text><text x="538.8" y="532.96" fill="#8b949e" textLength="67.2" lengthAdjust="spacingAndGlyphs">platform</text><text x="43.2" y="550.96" fill="#e6edf3" textLength="58.8" lengthAdjust="spacingAndGlyphs">Backend</text><text x="110.4" y="550.96" fill="#e6edf3" textLength="67.2" lengthAdjust="spacingAndGlyphs">monolith</text><text x="228" y="550.96" fill="#8b949e" textLength="8.4" lengthAdjust="spacingAndGlyphs">A</text><text x="244.8" y="550.96" fill="#8b949e" textLength="58.8" lengthAdjust="spacingAndGlyphs">service</text><text x="312" y="550.96" fill="#8b949e" textLength="16.8" lengthAdjust="spacingAndGlyphs">on</text><text x="337.2" y="550.96" fill="#8b949e" textLength="25.2" lengthAdjust="spacingAndGlyphs">the</text><text x="370.8" y="550.96" fill="#8b949e" textLength="33.6" lengthAdjust="spacingAndGlyphs">Link</text><text x="412.8" y="550.96" fill="#8b949e" textLength="33.6" lengthAdjust="spacingAndGlyphs">Loom</text><text x="454.8" y="550.96" fill="#8b949e" textLength="25.2" lengthAdjust="spacingAndGlyphs">SDK</text><text x="43.2" y="568.96" fill="#e6edf3" textLength="100.8" lengthAdjust="spacingAndGlyphs">Microservice</text><text x="228" y="568.96" fill="#8b949e" textLength="8.4" lengthAdjust="spacingAndGlyphs">A</text><text x="244.8" y="568.96" fill="#8b949e" textLength="58.8" lengthAdjust="spacingAndGlyphs">focused</text><text x="312" y="568.96" fill="#8b949e" textLength="58.8" lengthAdjust="spacingAndGlyphs">service</text><text x="379.2" y="568.96" fill="#8b949e" textLength="16.8" lengthAdjust="spacingAndGlyphs">on</text><text x="404.4" y="568.96" fill="#8b949e" textLength="25.2" lengthAdjust="spacingAndGlyphs">the</text><text x="438" y="568.96" fill="#8b949e" textLength="33.6" lengthAdjust="spacingAndGlyphs">Link</text><text x="480" y="568.96" fill="#8b949e" textLength="33.6" lengthAdjust="spacingAndGlyphs">Loom</text><text x="522" y="568.96" fill="#8b949e" textLength="25.2" lengthAdjust="spacingAndGlyphs">SDK</text><text x="43.2" y="586.96" fill="#8b949e" textLength="58.8" lengthAdjust="spacingAndGlyphs">StoneOS</text><text x="110.4" y="586.96" fill="#8b949e" textLength="25.2" lengthAdjust="spacingAndGlyphs">app</text><text x="228" y="586.96" fill="#8b949e" textLength="50.4" lengthAdjust="spacingAndGlyphs">coming</text><text x="286.8" y="586.96" fill="#8b949e" textLength="33.6" lengthAdjust="spacingAndGlyphs">soon</text><text x="328.8" y="586.96" fill="#8b949e" textLength="8.4" lengthAdjust="spacingAndGlyphs">·</text><text x="345.6" y="586.96" fill="#8b949e" textLength="16.8" lengthAdjust="spacingAndGlyphs">An</text><text x="370.8" y="586.96" fill="#8b949e" textLength="25.2" lengthAdjust="spacingAndGlyphs">App</text><text x="404.4" y="586.96" fill="#8b949e" textLength="50.4" lengthAdjust="spacingAndGlyphs">Engine</text><text x="463.2" y="586.96" fill="#8b949e" textLength="25.2" lengthAdjust="spacingAndGlyphs">app</text><text x="26.4" y="622.96" fill="#8b949e" textLength="33.6" lengthAdjust="spacingAndGlyphs">type</text><text x="68.4" y="622.96" fill="#8b949e" textLength="16.8" lengthAdjust="spacingAndGlyphs">to</text><text x="93.6" y="622.96" fill="#8b949e" textLength="58.8" lengthAdjust="spacingAndGlyphs">filter,</text><text x="160.8" y="622.96" fill="#8b949e" textLength="16.8" lengthAdjust="spacingAndGlyphs">or</text><text x="186" y="622.96" fill="#8b949e" textLength="25.2" lengthAdjust="spacingAndGlyphs">say</text><text x="219.6" y="622.96" fill="#8b949e" textLength="33.6" lengthAdjust="spacingAndGlyphs">what</text><text x="261.6" y="622.96" fill="#8b949e" textLength="25.2" lengthAdjust="spacingAndGlyphs">you</text><text x="295.2" y="622.96" fill="#8b949e" textLength="33.6" lengthAdjust="spacingAndGlyphs">need</text><text x="337.2" y="622.96" fill="#8b949e" textLength="8.4" lengthAdjust="spacingAndGlyphs">·</text><text x="354" y="622.96" fill="#8b949e" textLength="16.8" lengthAdjust="spacingAndGlyphs">↑↓</text><text x="379.2" y="622.96" fill="#8b949e" textLength="33.6" lengthAdjust="spacingAndGlyphs">move</text><text x="421.2" y="622.96" fill="#8b949e" textLength="8.4" lengthAdjust="spacingAndGlyphs">·</text><text x="438" y="622.96" fill="#8b949e" textLength="42" lengthAdjust="spacingAndGlyphs">enter</text><text x="488.4" y="622.96" fill="#8b949e" textLength="50.4" lengthAdjust="spacingAndGlyphs">choose</text><text x="547.2" y="622.96" fill="#8b949e" textLength="8.4" lengthAdjust="spacingAndGlyphs">·</text><text x="564" y="622.96" fill="#8b949e" textLength="25.2" lengthAdjust="spacingAndGlyphs">esc</text><text x="597.6" y="622.96" fill="#8b949e" textLength="33.6" lengthAdjust="spacingAndGlyphs">exit</text></g>
</svg>
